<svg id="Calque_1" data-name="Calque 1" xmlns="http://www.w3.org/2000/svg" viewBox="0 0 201.95 167.2"><defs><style>.cls-1{fill:#009fe3;}.cls-2{fill:#fff;}</style></defs><title>bouton_go_haut</title><path class="cls-1" d="M137.73,146.85H64.32A64.22,64.22,0,0,1,.1,82.63V64.22A64.22,64.22,0,0,1,64.32,0h73.41a64.22,64.22,0,0,1,64.22,64.22V82.63a64.22,64.22,0,0,1-64.22,64.22"/><path class="cls-2" d="M72.82,123.24c-8.71,0-14-7.67-14-17.68V45.13c0-10.79,4-20.79,18.07-20.79h2.86c15.73,0,17.55,10.27,17.55,21.7v9.88H83V45c0-4.29-1-6.63-4.68-6.63-3,0-4.55,2.21-4.55,6.63v56.54c0,4.55,1.56,6.89,4.81,6.89,3.77,0,5.46-2.6,5.46-6.24V78H77.37V63.2H97.9v58.75H89.58c-.13-.52-1.3-5.33-2.47-9.49-1,3.25-6,10.79-13.39,10.79Z"/><path class="cls-2" d="M143.26,100.37c0,13.52-4.55,22.74-18.72,22.74h-2.47c-14,0-19-9.23-19-22.74V46.56c0-13.52,4.94-22.23,18.85-22.23h2.47c14.3,0,18.85,8.84,18.85,22.1ZM128.31,45.78q0-7.41-5.07-7.41c-3.77,0-5.2,2.34-5.2,7.41v55.63c0,4.16,1.17,7.41,5.33,7.41s4.94-3.25,4.94-7.41Z"/></svg>